<?xml version="1.0" encoding="iso-8859-1"?>
<!-- Uploaded to: SVG Repo, www.svgrepo.com, Generator: SVG Repo Mixer Tools -->
<svg height="800px" width="800px" version="1.1" id="Capa_1" xmlns="http://www.w3.org/2000/svg" xmlns:xlink="http://www.w3.org/1999/xlink" 
	 viewBox="0 0 326.54 326.54" xml:space="preserve">
<g>
	<g>
		<polygon style="fill:#010002;" points="94.732,254.347 110.995,238.073 127.274,254.331 140.002,241.598 123.722,225.335 
			139.985,209.056 127.247,196.328 110.984,212.608 94.71,196.345 81.983,209.083 98.257,225.346 81.999,241.62 		"/>
		<polygon style="fill:#010002;" points="266.188,131.881 249.914,115.618 266.177,99.345 253.439,86.617 237.176,102.891 
			220.897,86.633 208.169,99.372 224.448,115.629 208.186,131.908 220.924,144.636 237.187,128.356 253.46,144.619 		"/>
		<path style="fill:#010002;" d="M247.744,197.889c2.953-3.65,3.818-8.556,2.29-12.994c-1.528-4.438-5.238-7.772-9.807-8.822
			l-128.938-29.637l87.961-75.423c3.019-2.584,4.748-6.353,4.748-10.318V38.373h24.139L189.764,0l-38.373,38.373h25.406v16.062
			L73.128,143.325c-3.9,3.34-5.58,8.588-4.357,13.57c1.224,4.982,5.156,8.849,10.155,10.002l133.964,30.796l-43.442,53.613
			l21.131,17.122L247.744,197.889z"/>
		<path style="fill:#010002;" d="M153.751,326.54c16.355,0,29.616-13.26,29.616-29.616s-13.26-29.616-29.616-29.616
			s-29.616,13.26-29.616,29.616S137.396,326.54,153.751,326.54z M153.751,283.62c7.332,0,13.299,5.967,13.299,13.299
			s-5.961,13.304-13.299,13.304s-13.299-5.967-13.299-13.299S146.42,283.62,153.751,283.62z"/>
		<path style="fill:#010002;" d="M295.167,157.635c-16.355,0-29.616,13.26-29.616,29.616s13.26,29.616,29.616,29.616
			c16.355,0,29.616-13.26,29.616-29.616C324.788,170.895,311.528,157.635,295.167,157.635z M295.167,200.555
			c-7.332,0-13.299-5.967-13.299-13.299c0-7.332,5.967-13.299,13.299-13.299c7.332,0,13.298,5.967,13.298,13.299
			C308.471,194.588,302.504,200.555,295.167,200.555z"/>
		<path style="fill:#010002;" d="M31.373,192.983c16.355,0,29.616-13.26,29.616-29.616s-13.26-29.616-29.616-29.616
			s-29.616,13.26-29.616,29.616S15.017,192.983,31.373,192.983z M31.373,150.069c7.332,0,13.299,5.967,13.299,13.299
			c0,7.332-5.967,13.299-13.299,13.299s-13.299-5.967-13.299-13.299C18.074,156.036,24.041,150.069,31.373,150.069z"/>
	</g>
</g>
</svg>