<?xml version="1.0" encoding="iso-8859-1"?>
<!-- Uploaded to: SVG Repo, www.svgrepo.com, Generator: SVG Repo Mixer Tools -->
<svg fill="white" height="70px" width="70px" version="1.1" id="Layer_1" xmlns="http://www.w3.org/2000/svg" xmlns:xlink="http://www.w3.org/1999/xlink" 
	 viewBox="0 0 511.999 511.999" xml:space="preserve">
<g>
	<g>
		<path d="M256.002,54.539c-68.63,0-124.465,55.871-124.465,124.548v151.086c0,3.905-3.174,7.082-7.075,7.082
			c-3.906,0-7.083-3.177-7.083-7.082v-67.14c0-9.995-8.132-18.128-18.128-18.128H18.128C8.133,244.904,0,253.036,0,263.032v69.881
			C0,401.589,55.835,457.46,124.465,457.46c68.624,0,124.456-55.871,124.456-124.548V179.086c0-3.9,3.177-7.072,7.082-7.072
			c3.906,0,7.083,3.173,7.083,7.072v30.771c0,9.995,8.132,18.128,18.128,18.128h81.114c9.996,0,18.128-8.132,18.128-18.128v-30.771
			C380.457,110.41,324.627,54.539,256.002,54.539z M360.058,207.587h-76.574v-28.501c0-15.148-12.329-27.471-27.482-27.471
			s-27.481,12.323-27.481,27.471v153.826c0,57.428-46.68,104.149-104.057,104.149c-57.383,0-104.067-46.72-104.067-104.149v-67.611
			H96.98v64.871c0,15.153,12.329,27.481,27.482,27.481c15.149,0,27.474-12.328,27.474-27.481V179.086
			c0-57.428,46.684-104.149,104.067-104.149c57.377,0,104.056,46.721,104.056,104.149V207.587z"/>
	</g>
</g>
<g>
	<g>
		<path d="M493.871,246.277h-81.117c-9.995,0-18.128,8.131-18.128,18.127v68.509c0,3.905-3.177,7.082-7.083,7.082
			c-3.905,0-7.082-3.177-7.082-7.082v-68.509c0-9.995-8.132-18.127-18.128-18.127h-81.117c-9.996,0-18.128,8.131-18.128,18.127
			v68.509c0,68.676,55.829,124.548,124.455,124.548c68.626,0,124.459-55.871,124.458-124.548v-68.509
			C511.999,254.408,503.867,246.277,493.871,246.277z M491.602,332.913c0,57.429-46.682,104.149-104.06,104.149
			c-57.377,0-104.056-46.72-104.056-104.149v-66.238h76.577v66.238c0,15.153,12.328,27.481,27.481,27.481
			c15.154,0,27.482-12.328,27.482-27.481v-66.238h76.578V332.913z"/>
	</g>
</g>
<g>
	<g>
		<path d="M173.386,170.326c-5.633,0-10.199,4.567-10.199,10.199v8.159c0,5.632,4.566,10.199,10.199,10.199
			c5.633,0,10.199-4.567,10.199-10.199v-8.159C183.586,174.893,179.019,170.326,173.386,170.326z"/>
	</g>
</g>
<g>
	<g>
		<path d="M173.386,217.242c-5.633,0-10.199,4.567-10.199,10.199v96.892c0,5.632,4.566,10.199,10.199,10.199
			c5.633,0,10.199-4.567,10.199-10.199v-96.892C183.586,221.81,179.019,217.242,173.386,217.242z"/>
	</g>
</g>
</svg>